<?xml version="1.0" encoding="utf-8"?>
<!-- Generator: Adobe Illustrator 26.3.1, SVG Export Plug-In . SVG Version: 6.00 Build 0)  -->
<svg version="1.1" id="Layer_1" xmlns="http://www.w3.org/2000/svg" xmlns:xlink="http://www.w3.org/1999/xlink" x="0px" y="0px"
	 viewBox="0 0 400 225.67" style="enable-background:new 0 0 400 225.67;" xml:space="preserve">
<style type="text/css">
	.st0{clip-path:url(#SVGID_00000160184103071232422390000004224814309454165153_);fill:#272361;}
	.st1{clip-path:url(#SVGID_00000160184103071232422390000004224814309454165153_);fill:#3853A3;}
	.st2{clip-path:url(#SVGID_00000160184103071232422390000004224814309454165153_);fill:#0D72B9;}
	.st3{clip-path:url(#SVGID_00000160184103071232422390000004224814309454165153_);fill:#28AAE1;}
	.st4{clip-path:url(#SVGID_00000160184103071232422390000004224814309454165153_);fill:#00A89C;}
	.st5{clip-path:url(#SVGID_00000160184103071232422390000004224814309454165153_);fill:#1EB473;}
	.st6{clip-path:url(#SVGID_00000160184103071232422390000004224814309454165153_);fill:#8BC540;}
	.st7{clip-path:url(#SVGID_00000160184103071232422390000004224814309454165153_);fill:#EC1E27;}
	.st8{clip-path:url(#SVGID_00000160184103071232422390000004224814309454165153_);fill:#D8DF25;}
	.st9{clip-path:url(#SVGID_00000160184103071232422390000004224814309454165153_);fill:#FAEC22;}
	.st10{clip-path:url(#SVGID_00000160184103071232422390000004224814309454165153_);fill:#FAAF3A;}
	.st11{clip-path:url(#SVGID_00000160184103071232422390000004224814309454165153_);fill:#F69220;}
	.st12{clip-path:url(#SVGID_00000160184103071232422390000004224814309454165153_);fill:#C0272D;}
	.st13{clip-path:url(#SVGID_00000160184103071232422390000004224814309454165153_);fill:#F05A26;}
	.st14{clip-path:url(#SVGID_00000160184103071232422390000004224814309454165153_);fill:#9D1F60;}
	.st15{clip-path:url(#SVGID_00000160184103071232422390000004224814309454165153_);fill:#92288C;}
	.st16{clip-path:url(#SVGID_00000160184103071232422390000004224814309454165153_);fill:#672F8F;}
	.st17{clip-path:url(#SVGID_00000078723311112247454080000017728048789325306542_);fill:#3853A3;}
	.st18{clip-path:url(#SVGID_00000078723311112247454080000017728048789325306542_);fill:#0D72B9;}
	.st19{clip-path:url(#SVGID_00000078723311112247454080000017728048789325306542_);fill:#28AAE1;}
	.st20{clip-path:url(#SVGID_00000078723311112247454080000017728048789325306542_);fill:#00A89C;}
	.st21{clip-path:url(#SVGID_00000078723311112247454080000017728048789325306542_);fill:#1EB473;}
	.st22{clip-path:url(#SVGID_00000078723311112247454080000017728048789325306542_);fill:#8BC540;}
	.st23{clip-path:url(#SVGID_00000078723311112247454080000017728048789325306542_);fill:#EC1E27;}
	.st24{clip-path:url(#SVGID_00000078723311112247454080000017728048789325306542_);fill:#FAEC22;}
	.st25{clip-path:url(#SVGID_00000078723311112247454080000017728048789325306542_);fill:#F69220;}
	.st26{clip-path:url(#SVGID_00000078723311112247454080000017728048789325306542_);fill:#C0272D;}
	.st27{clip-path:url(#SVGID_00000078723311112247454080000017728048789325306542_);fill:#F05A26;}
	.st28{clip-path:url(#SVGID_00000078723311112247454080000017728048789325306542_);fill:#9D1F60;}
	.st29{clip-path:url(#SVGID_00000078723311112247454080000017728048789325306542_);fill:#92288C;}
	.st30{clip-path:url(#SVGID_00000078723311112247454080000017728048789325306542_);fill:#672F8F;}
	.st31{clip-path:url(#SVGID_00000078723311112247454080000017728048789325306542_);fill:#272361;}
	.st32{clip-path:url(#SVGID_00000078723311112247454080000017728048789325306542_);fill:#FAAF3A;}
</style>
<g>
	<defs>
		<path id="SVGID_1_" d="M31.81,196.16c-0.39-8.8-0.58-18.51-0.58-29.13c0-10.22,0.19-21.1,0.58-32.62
			c0.39-11.52,0.97-23.2,1.75-35.05c0.78-11.85,1.81-23.4,3.11-34.66c-2.07,0.52-4.05,1-5.92,1.46c-1.88,0.45-3.59,0.94-5.15,1.46
			l-9.9-30.88c31.33-7.38,57.41-11.07,78.25-11.07c42.33,0,63.5,16.12,63.5,48.35c0,15.15-5.05,27.15-15.15,36.02
			c-10.1,8.87-24.92,14.47-44.47,16.8c11.78,9.97,23.66,18.16,35.63,24.56c11.97,6.41,24.11,11.81,36.41,16.21l-21.36,28.54
			c-6.86-2.46-14.05-5.89-21.55-10.29c-7.51-4.4-14.95-9.25-22.33-14.56c-7.38-5.31-14.4-10.68-21.07-16.12
			c-6.67-5.44-12.59-10.48-17.77-15.15c-0.13,8.93-0.23,17.96-0.29,27.09c-0.07,9.13-0.1,18.54-0.1,28.25l-1.17,1.16
			c-4.92,0-10.19,0.03-15.83,0.1c-5.63,0.06-10.71,0.29-15.24,0.68L31.81,196.16z M92.2,56.54c-3.63,0-7.38,0.16-11.26,0.48
			c-3.88,0.33-7.77,0.75-11.65,1.26c-0.52,7.25-0.97,14.4-1.36,21.46c-0.39,7.06-0.71,14.08-0.97,21.07
			c5.69-0.13,11.87-0.49,18.54-1.07c6.66-0.58,12.98-1.75,18.93-3.5c5.95-1.75,10.84-4.3,14.66-7.67c3.82-3.36,5.73-7.83,5.73-13.4
			c0-6.47-2.65-11.19-7.96-14.17C111.55,58.03,103.33,56.54,92.2,56.54z"/>
	</defs>
	<clipPath id="SVGID_00000065778681336603369240000005271444432085534090_">
		<use xlink:href="#SVGID_1_"  style="overflow:visible;"/>
	</clipPath>
	<path style="clip-path:url(#SVGID_00000065778681336603369240000005271444432085534090_);fill:#272361;" d="M15.69,36.73l9.9,30.88
		l11.08-2.96c0,0,15.02-34.7,13.16-34.73c-1.86-0.03-23.3,4.09-33.84,6.78"/>
	<path style="clip-path:url(#SVGID_00000065778681336603369240000005271444432085534090_);fill:#3853A3;" d="M36.67,64.65
		c0,0,15.08-34.79,13.23-34.82c-1.86-0.03-23.37,4.18-33.91,6.86"/>
	<polygon style="clip-path:url(#SVGID_00000065778681336603369240000005271444432085534090_);fill:#0D72B9;" points="49.68,29.65 
		74.57,58.1 36.29,64.85 	"/>
	<polygon style="clip-path:url(#SVGID_00000065778681336603369240000005271444432085534090_);fill:#28AAE1;" points="74.58,58.23 
		49.69,29.78 89,24.22 	"/>
	<polygon style="clip-path:url(#SVGID_00000065778681336603369240000005271444432085534090_);fill:#28AAE1;" points="36.66,64.7 
		69.36,58.75 67.7,84.19 	"/>
	<polygon style="clip-path:url(#SVGID_00000065778681336603369240000005271444432085534090_);fill:#00A89C;" points="88.8,24.1 
		110.92,58.66 74.58,58.19 	"/>
	<polygon style="clip-path:url(#SVGID_00000065778681336603369240000005271444432085534090_);fill:#00A89C;" points="36.1,64.32 
		68.04,84.45 33.42,100.44 	"/>
	<polygon style="clip-path:url(#SVGID_00000065778681336603369240000005271444432085534090_);fill:#1EB473;" points="111.59,59.7 
		89.47,25.14 125.81,25.61 	"/>
	<polygon style="clip-path:url(#SVGID_00000065778681336603369240000005271444432085534090_);fill:#1EB473;" points="67.7,84.62 
		66.95,100.81 32.99,100.63 	"/>
	<polygon style="clip-path:url(#SVGID_00000065778681336603369240000005271444432085534090_);fill:#8BC540;" points="111.33,59.91 
		124.99,27.33 140.91,36.04 154.48,49.33 	"/>
	<polygon style="clip-path:url(#SVGID_00000065778681336603369240000005271444432085534090_);fill:#8BC540;" points="66.95,100.81 
		32.86,100.52 32.35,118.63 51.64,109.86 	"/>
	<polygon style="clip-path:url(#SVGID_00000065778681336603369240000005271444432085534090_);fill:#EC1E27;" points="65.69,130.89 
		49.31,146.88 65.65,154.51 65.78,142.11 	"/>
	<polygon style="clip-path:url(#SVGID_00000065778681336603369240000005271444432085534090_);fill:#D8DF25;" points="113.45,59.39 
		154.2,49.16 157.83,69.04 157.16,91.88 	"/>
	<polygon style="clip-path:url(#SVGID_00000065778681336603369240000005271444432085534090_);fill:#FAEC22;" points="122.38,65.91 
		156.02,91.07 147.74,110.55 125.33,121.05 	"/>
	<polygon style="clip-path:url(#SVGID_00000065778681336603369240000005271444432085534090_);fill:#FAAF3A;" points="90.11,99.38 
		125.4,122.47 123.55,82.82 	"/>
	<polygon style="clip-path:url(#SVGID_00000065778681336603369240000005271444432085534090_);fill:#FAAF3A;" points="66.03,100.17 
		62.49,129.68 98.64,127.84 93.52,99.12 	"/>
	<polygon style="clip-path:url(#SVGID_00000065778681336603369240000005271444432085534090_);fill:#FAEC22;" points="66.95,100.81 
		31.96,118.67 65.64,131.14 	"/>
	<polygon style="clip-path:url(#SVGID_00000065778681336603369240000005271444432085534090_);fill:#F69220;" points="98.45,127.82 
		124.1,121.62 88.92,98.04 	"/>
	<polygon style="clip-path:url(#SVGID_00000065778681336603369240000005271444432085534090_);fill:#F69220;" points="49.31,146.88 
		65.52,131.05 32.43,118.8 	"/>
	<polygon style="clip-path:url(#SVGID_00000065778681336603369240000005271444432085534090_);fill:#C0272D;" points="49.31,146.88 
		31.29,151.33 65.65,154.51 	"/>
	<polygon style="clip-path:url(#SVGID_00000065778681336603369240000005271444432085534090_);fill:#F05A26;" points="31.29,151.33 
		49.31,146.88 32.24,118.52 	"/>
	<polygon style="clip-path:url(#SVGID_00000065778681336603369240000005271444432085534090_);fill:#9D1F60;" points="31.29,151.33 
		65.73,154.29 65.39,185.45 	"/>
	<polygon style="clip-path:url(#SVGID_00000065778681336603369240000005271444432085534090_);fill:#92288C;" points="65.58,185.49 
		31.14,182.53 31.25,151.29 	"/>
	<polygon style="clip-path:url(#SVGID_00000065778681336603369240000005271444432085534090_);fill:#672F8F;" points="19.05,178.97 
		73.41,185.42 48.31,242.96 	"/>
	<polygon style="clip-path:url(#SVGID_00000065778681336603369240000005271444432085534090_);fill:#F69220;" points="114.98,140.15 
		99.11,127.67 65.6,129.5 	"/>
	<polygon style="clip-path:url(#SVGID_00000065778681336603369240000005271444432085534090_);fill:#F05A26;" points="65.6,129.5 
		65.75,140.15 108.24,138.66 	"/>
	<path style="clip-path:url(#SVGID_00000065778681336603369240000005271444432085534090_);fill:#0D72B9;" d="M74.25,58.73"/>
	<polygon style="clip-path:url(#SVGID_00000065778681336603369240000005271444432085534090_);fill:#EC1E27;" points="138.34,153.64 
		80.43,152.97 65.79,140.04 112.88,138.45 	"/>
	<polygon style="clip-path:url(#SVGID_00000065778681336603369240000005271444432085534090_);fill:#C0272D;" points="110.86,175.68 
		78.4,152.95 126.29,153.39 	"/>
	<polygon style="clip-path:url(#SVGID_00000065778681336603369240000005271444432085534090_);fill:#9D1F60;" points="110.21,175.32 
		131.41,146.04 157.94,162.4 	"/>
	<polygon style="clip-path:url(#SVGID_00000065778681336603369240000005271444432085534090_);fill:#92288C;" points="158.07,162.26 
		135.55,191.75 110.21,175.32 	"/>
	<polygon style="clip-path:url(#SVGID_00000065778681336603369240000005271444432085534090_);fill:#672F8F;" points="126.41,196.38 
		159.96,153.12 196.33,204.3 	"/>
</g>
<g>
	<defs>
		<path id="SVGID_00000065033096773900135800000016093027029031182014_" d="M238.02,196.74c-1.17-7.25-2.01-16.12-2.52-26.6
			c-0.52-10.48-0.78-21.81-0.78-33.98c0-12.56,0.23-25.44,0.68-38.64c0.45-13.2,1.04-25.92,1.75-38.16
			c0.71-12.23,1.52-23.07,2.43-32.53l33.79,0.58c-1.43,9.06-2.56,19.13-3.4,30.2c-0.84,11.07-1.52,22.56-2.04,34.47
			c9.19-1.29,19.16-2.26,29.9-2.91c10.74-0.65,21.1-0.97,31.07-0.97c4.79,0,9.38,0.13,13.79,0.39c-0.13-9.71-0.33-18.77-0.58-27.19
			c-0.26-8.41-0.58-15.53-0.97-21.36c-0.39-5.83-0.84-9.84-1.36-12.04l33.4-2.14c1.16,10.87,2.1,23.88,2.82,39.03
			c0.71,15.15,1.07,31.2,1.07,48.16c0,13.72-0.26,27.67-0.78,41.85c-0.52,14.17-1.42,27.8-2.72,40.88h-32.43
			c0.52-4.15,0.9-9.81,1.17-16.99c0.26-7.18,0.45-15.34,0.58-24.47c0.13-9.13,0.19-18.67,0.19-28.64c0-1.81,0-3.69,0-5.63
			c-2.46,0-4.95-0.03-7.48-0.1c-2.52-0.06-5.08-0.1-7.67-0.1c-10.23,0-20.55,0.36-30.97,1.07c-10.42,0.71-20.36,1.72-29.81,3.01
			c0,4.14,0,8.29,0,12.43c0,11.39,0.1,22.07,0.29,32.04c0.19,9.97,0.55,19.03,1.07,27.19L238.02,196.74z"/>
	</defs>
	<clipPath id="SVGID_00000103974636213974810240000005099673859262111873_">
		<use xlink:href="#SVGID_00000065033096773900135800000016093027029031182014_"  style="overflow:visible;"/>
	</clipPath>
	<path style="clip-path:url(#SVGID_00000103974636213974810240000005099673859262111873_);fill:#3853A3;" d="M233.42,72.31
		c0,0,35.79-12.54,34.55-13.92c-1.24-1.39-18.94-14.32-28.06-20.24"/>
	<polygon style="clip-path:url(#SVGID_00000103974636213974810240000005099673859262111873_);fill:#0D72B9;" points="244.25,45.67 
		277.67,28 275.43,66.8 	"/>
	<polygon style="clip-path:url(#SVGID_00000103974636213974810240000005099673859262111873_);fill:#28AAE1;" points="237.54,60.53 
		270.24,54.58 268.58,80.02 	"/>
	<polygon style="clip-path:url(#SVGID_00000103974636213974810240000005099673859262111873_);fill:#00A89C;" points="237.31,59.89 
		269.25,80.02 234.63,96.01 	"/>
	<polygon style="clip-path:url(#SVGID_00000103974636213974810240000005099673859262111873_);fill:#1EB473;" points="269.32,80.01 
		268.57,96.2 234.61,96.01 	"/>
	<polygon style="clip-path:url(#SVGID_00000103974636213974810240000005099673859262111873_);fill:#8BC540;" points="269.47,96.2 
		235.37,95.9 234.87,114.01 254.16,105.25 	"/>
	<polygon style="clip-path:url(#SVGID_00000103974636213974810240000005099673859262111873_);fill:#EC1E27;" points="268.13,125.75 
		251.75,141.75 268.09,149.38 268.21,136.97 	"/>
	<polygon style="clip-path:url(#SVGID_00000103974636213974810240000005099673859262111873_);fill:#FAEC22;" points="269.02,96.5 
		234.03,114.35 267.7,126.82 	"/>
	<polygon style="clip-path:url(#SVGID_00000103974636213974810240000005099673859262111873_);fill:#F69220;" points="253.09,142.12 
		269.3,126.29 234.4,113.23 	"/>
	<polygon style="clip-path:url(#SVGID_00000103974636213974810240000005099673859262111873_);fill:#C0272D;" points="252.66,141.21 
		232.22,147.3 270.92,150.52 	"/>
	<polygon style="clip-path:url(#SVGID_00000103974636213974810240000005099673859262111873_);fill:#F05A26;" points="234.33,146.64 
		253.24,141.3 234.92,113.83 	"/>
	<polygon style="clip-path:url(#SVGID_00000103974636213974810240000005099673859262111873_);fill:#9D1F60;" points="235.59,147.16 
		270.03,150.12 269.69,181.28 	"/>
	<polygon style="clip-path:url(#SVGID_00000103974636213974810240000005099673859262111873_);fill:#92288C;" points="268.39,179.83 
		233.96,176.87 234.06,145.63 	"/>
	<polygon style="clip-path:url(#SVGID_00000103974636213974810240000005099673859262111873_);fill:#672F8F;" points="226.47,174.36 
		280.84,180.8 255.74,238.35 	"/>
	<path style="clip-path:url(#SVGID_00000103974636213974810240000005099673859262111873_);fill:#0D72B9;" d="M278.55,54.56"/>
	<path style="clip-path:url(#SVGID_00000103974636213974810240000005099673859262111873_);fill:#272361;" d="M240.4,14.2l35.05,6.07
		l-2.03,11.37c0,0-36.51,19.16-36.75,17.32c-0.24-1.84,1.93-23.66,3.72-34.46"/>
	<path style="clip-path:url(#SVGID_00000103974636213974810240000005099673859262111873_);fill:#3853A3;" d="M376.96,157.68
		c0,0-34.61,1.39-33.29,2.76c1.31,1.37,22.3,14.07,31.96,19.89"/>
	<polygon style="clip-path:url(#SVGID_00000103974636213974810240000005099673859262111873_);fill:#0D72B9;" points="368.75,172.91 
		333.76,190.93 335.73,152.1 	"/>
	<polygon style="clip-path:url(#SVGID_00000103974636213974810240000005099673859262111873_);fill:#28AAE1;" points="376.44,157.9 
		341.32,164.27 342.81,138.81 	"/>
	<polygon style="clip-path:url(#SVGID_00000103974636213974810240000005099673859262111873_);fill:#00A89C;" points="376.44,157.9 
		342.11,138.81 378.38,122.47 	"/>
	<polygon style="clip-path:url(#SVGID_00000103974636213974810240000005099673859262111873_);fill:#1EB473;" points="342.03,138.83 
		342.65,122.63 378.4,122.46 	"/>
	<polygon style="clip-path:url(#SVGID_00000103974636213974810240000005099673859262111873_);fill:#8BC540;" points="341.71,122.64 
		377.6,122.58 377.95,104.47 357.74,113.43 	"/>
	<polygon style="clip-path:url(#SVGID_00000103974636213974810240000005099673859262111873_);fill:#EC1E27;" points="342.83,93.08 
		359.91,76.91 342.27,69.35 342.46,81.89 	"/>
	<polygon style="clip-path:url(#SVGID_00000103974636213974810240000005099673859262111873_);fill:#FAEC22;" points="341.92,122.34 
		378.57,104.12 343.01,92 	"/>
	<polygon style="clip-path:url(#SVGID_00000103974636213974810240000005099673859262111873_);fill:#F69220;" points="358.49,76.55 
		341.59,92.55 378.45,105.24 	"/>
	<polygon style="clip-path:url(#SVGID_00000103974636213974810240000005099673859262111873_);fill:#C0272D;" points="358.95,77.46 
		380.4,71.16 339.64,68.34 	"/>
	<polygon style="clip-path:url(#SVGID_00000103974636213974810240000005099673859262111873_);fill:#F05A26;" points="378.19,71.83 
		358.34,77.37 377.89,104.65 	"/>
	<polygon style="clip-path:url(#SVGID_00000103974636213974810240000005099673859262111873_);fill:#9D1F60;" points="376.85,71.32 
		340.59,68.73 340.63,37.57 	"/>
	<polygon style="clip-path:url(#SVGID_00000103974636213974810240000005099673859262111873_);fill:#92288C;" points="342.01,39 
		378.28,41.6 378.48,72.84 	"/>
	<polygon style="clip-path:url(#SVGID_00000103974636213974810240000005099673859262111873_);fill:#672F8F;" points="386.18,44.04 
		328.9,38.16 354.75,-19.65 	"/>
	<path style="clip-path:url(#SVGID_00000103974636213974810240000005099673859262111873_);fill:#0D72B9;" d="M331.85,54.34"/>
	<path style="clip-path:url(#SVGID_00000103974636213974810240000005099673859262111873_);fill:#272361;" d="M374.91,204.03
		l-36.95-5.7l2.03-11.39c0,0,38.23-19.55,38.5-17.71c0.27,1.84-1.8,23.68-3.57,34.5"/>
	<polygon style="clip-path:url(#SVGID_00000103974636213974810240000005099673859262111873_);fill:#28AAE1;" points="295.48,121.98 
		269.37,91.64 292.96,88.7 	"/>
	<polygon style="clip-path:url(#SVGID_00000103974636213974810240000005099673859262111873_);fill:#28AAE1;" points="319.83,121.22 
		342.71,88.37 318.94,87.85 	"/>
	<polygon style="clip-path:url(#SVGID_00000103974636213974810240000005099673859262111873_);fill:#F69220;" points="267.71,124.44 
		296.71,122.5 268.83,90.62 	"/>
	<polygon style="clip-path:url(#SVGID_00000103974636213974810240000005099673859262111873_);fill:#FAAF3A;" points="344.06,121.99 
		315.06,120.04 342.95,88.16 	"/>
	<polygon style="clip-path:url(#SVGID_00000103974636213974810240000005099673859262111873_);fill:#00A89C;" points="308.48,120.42 
		295.34,121.12 292.96,88.63 	"/>
	<polygon style="clip-path:url(#SVGID_00000103974636213974810240000005099673859262111873_);fill:#00A89C;" points="307.29,120.34 
		319.91,120.29 318.89,85.87 	"/>
	<polygon style="clip-path:url(#SVGID_00000103974636213974810240000005099673859262111873_);fill:#1EB473;" points="308.32,120.53 
		293.07,89.09 318.14,88.25 	"/>
</g>
<path d="M67.38-67.23c-0.29-6.57-0.43-13.81-0.43-21.73c0-7.63,0.14-15.74,0.43-24.34c0.29-8.6,0.72-17.31,1.3-26.15
	c0.58-8.84,1.35-17.46,2.32-25.86c-1.55,0.39-3.02,0.75-4.42,1.09c-1.4,0.34-2.68,0.7-3.84,1.09l-7.39-23.04
	c23.38-5.51,42.84-8.26,58.39-8.26c31.59,0,47.38,12.03,47.38,36.08c0,11.3-3.77,20.26-11.3,26.88
	c-7.53,6.62-18.6,10.79-33.18,12.53c8.79,7.44,17.65,13.55,26.59,18.33c8.93,4.78,17.99,8.82,27.17,12.1l-15.94,21.3
	c-5.12-1.84-10.48-4.4-16.08-7.68c-5.6-3.28-11.16-6.9-16.66-10.87c-5.51-3.96-10.75-7.97-15.72-12.03
	c-4.98-4.06-9.4-7.82-13.26-11.3c-0.1,6.67-0.17,13.4-0.22,20.21c-0.05,6.81-0.07,13.84-0.07,21.08l-0.87,0.87
	c-3.67,0-7.61,0.02-11.81,0.07c-4.2,0.05-7.99,0.22-11.37,0.51L67.38-67.23z M112.45-171.41c-2.71,0-5.51,0.12-8.4,0.36
	c-2.9,0.24-5.8,0.56-8.69,0.94c-0.39,5.41-0.72,10.75-1.01,16.01c-0.29,5.27-0.53,10.5-0.72,15.72c4.25-0.1,8.86-0.36,13.84-0.8
	c4.97-0.44,9.68-1.3,14.13-2.61c4.44-1.3,8.09-3.21,10.94-5.72c2.85-2.51,4.27-5.84,4.27-10c0-4.83-1.98-8.35-5.94-10.58
	C126.88-170.3,120.75-171.41,112.45-171.41z"/>
<path d="M221.26-66.8c-0.87-5.41-1.5-12.03-1.88-19.85c-0.39-7.82-0.58-16.28-0.58-25.36c0-9.37,0.17-18.98,0.51-28.83
	c0.34-9.85,0.77-19.34,1.3-28.47c0.53-9.13,1.13-17.22,1.81-24.27l25.21,0.43c-1.06,6.76-1.91,14.27-2.54,22.53
	c-0.63,8.26-1.14,16.83-1.52,25.72c6.86-0.96,14.3-1.69,22.31-2.17c8.02-0.48,15.74-0.72,23.18-0.72c3.57,0,7,0.1,10.29,0.29
	c-0.1-7.24-0.24-14.01-0.43-20.29c-0.2-6.28-0.44-11.59-0.73-15.94c-0.29-4.35-0.63-7.34-1.01-8.98l24.92-1.59
	c0.87,8.11,1.57,17.82,2.1,29.12c0.53,11.3,0.8,23.28,0.8,35.93c0,10.24-0.19,20.65-0.58,31.22c-0.39,10.58-1.06,20.74-2.03,30.5
	h-24.2c0.39-3.09,0.68-7.32,0.87-12.68c0.19-5.36,0.34-11.45,0.43-18.26c0.1-6.81,0.15-13.93,0.15-21.37c0-1.35,0-2.75,0-4.2
	c-1.84,0-3.69-0.02-5.58-0.07c-1.88-0.05-3.79-0.07-5.72-0.07c-7.63,0-15.34,0.27-23.11,0.8c-7.78,0.53-15.19,1.28-22.24,2.25
	c0,3.09,0,6.18,0,9.27c0,8.5,0.07,16.47,0.22,23.91c0.14,7.44,0.41,14.2,0.8,20.29L221.26-66.8z"/>
</svg>
